<svg width="45" height="47" viewBox="0 0 45 47" fill="none" xmlns="http://www.w3.org/2000/svg">
<ellipse cx="22.0833" cy="22.1053" rx="22.0833" ry="22.1053" fill="#232E35"/>
<path d="M14.6289 27.791L18.1764 7.73878L24.289 12.3159C25.5412 13.2536 26.5445 14.308 27.2988 15.4789C28.0583 16.6539 28.5702 17.8873 28.8344 19.1791C29.1051 20.4684 29.1272 21.7528 28.9009 23.0322C28.6734 24.3181 28.2531 25.2674 27.6399 25.8801C27.0332 26.4903 26.2545 26.7314 25.3037 26.6034C24.354 26.4688 23.2531 25.9327 22.0008 24.995L17.6472 21.735L18.1807 18.7193L22.1364 21.6814C22.8686 22.2297 23.4902 22.5546 24.001 22.6562C24.5129 22.7513 24.9231 22.6408 25.2314 22.3246C25.5462 22.0059 25.7665 21.4908 25.8923 20.7793C26.0182 20.0678 26.0115 19.3754 25.8723 18.7019C25.7342 18.0219 25.4548 17.3766 25.034 16.7658C24.6145 16.1485 24.0359 15.5638 23.2984 15.0115L20.5923 12.9851L17.5817 30.0021L14.6289 27.791ZM24.6571 25.0104L27.0849 37.1182L23.7898 34.6508L21.4337 22.5966L24.6571 25.0104Z" fill="white"/>
</svg>
