<svg width="545" height="496" viewBox="0 0 545 496" xmlns="http://www.w3.org/2000/svg">
<rect x="111.881" y="80.2145" width="341" height="398" rx="16" transform="rotate(-9.54524 111.881 80.2145)" fill="#7E74F1"/>
<g clip-path="url(#clip0_206_53)">
<rect x="145" y="48" width="336" height="400" rx="16" fill="#EAE6FE"/>
<path opacity="0.7" d="M284.803 99.8697L544.09 -86.4158M283.177 118.609L558.828 -79.7738M287.825 132.703L571.325 -71.4633M295.877 144.296L585.733 -64.573M301.326 157.805L600.307 -57.806M308.389 170.124L616 -51.8618M315.369 182.507L627.143 -42.5662M322.362 194.873L641.61 -35.7165M329.696 206.995L652.682 -26.3627M335.722 220.078L661.289 -15.1804M343.069 232.181L671.465 -5.16586M351.098 243.789L681.43 5.00344M357.267 256.751L675.901 26.6191" stroke="white" stroke-width="2" stroke-miterlimit="10" stroke-linecap="round" stroke-linejoin="round" stroke-dasharray="0.3 0.3"/>
<g clip-path="url(#clip1_206_53)">
<path d="M455.18 300.288C455.226 338.4 440.479 375.045 414.038 402.521C412.444 404.188 410.807 405.815 409.127 407.402C406.567 409.834 403.921 412.172 401.19 414.416C375.636 435.446 343.734 447.264 310.631 447.963C309.528 447.988 308.421 448 307.31 448C280.91 448 247.705 433.914 217.572 414.416C215.079 412.803 212.608 411.152 210.159 409.464C209.014 408.683 207.875 407.89 206.742 407.086C195.12 398.889 184.088 389.886 173.728 380.145C166.945 373.787 160.585 366.993 154.687 359.807C131.533 331.278 126.426 305.572 159.436 300.288C163.344 299.665 167.137 298.998 170.815 298.288C176.142 297.266 181.241 296.161 186.111 294.975C192.67 293.383 198.833 291.656 204.598 289.795C206.538 289.171 208.433 288.535 210.284 287.886C237.645 278.287 255.958 265.768 268.424 252.186C270.538 249.887 272.487 247.56 274.272 245.205C277.001 241.622 279.481 237.854 281.693 233.93C284.745 228.478 287.309 222.767 289.355 216.864L289.467 216.539C299.385 187.961 296.368 161.453 307.31 152.58C354.083 114.652 412.315 168.666 439.647 232.363C441.025 235.572 442.321 238.801 443.535 242.05C444.08 243.501 444.606 244.955 445.112 246.411C446.444 250.207 447.652 254.012 448.737 257.828C449.153 259.283 449.55 260.736 449.928 262.189C450.331 263.756 450.718 265.319 451.076 266.883C453.736 278.328 455.18 289.616 455.18 300.288Z" fill="#F2F2F2"/>
<path d="M310.631 447.963C309.528 447.988 308.421 448 307.31 448C280.91 448 247.705 433.914 217.572 414.416C215.079 412.803 212.608 411.152 210.159 409.464L212.307 396.41L277.322 387.787L309.953 412.711L310.631 447.963Z" fill="#2F2E41"/>
<path d="M313.761 214.856H304.496C304.209 214.856 303.934 214.97 303.731 215.172C303.528 215.375 303.414 215.65 303.414 215.937V225.195C303.414 225.337 303.443 225.477 303.497 225.608C303.551 225.739 303.631 225.858 303.732 225.958C303.832 226.058 303.952 226.137 304.083 226.191C304.214 226.245 304.355 226.273 304.496 226.272H313.761C314.047 226.272 314.322 226.159 314.525 225.957C314.728 225.755 314.842 225.481 314.843 225.195V215.937C314.842 215.65 314.728 215.376 314.525 215.173C314.323 214.971 314.048 214.856 313.761 214.856Z" fill="white"/>
<path d="M313.761 230.633H304.496C304.209 230.633 303.934 230.747 303.731 230.95C303.528 231.153 303.414 231.428 303.414 231.714V240.973C303.414 241.115 303.443 241.255 303.497 241.386C303.551 241.517 303.631 241.636 303.732 241.736C303.832 241.836 303.952 241.915 304.083 241.969C304.214 242.023 304.355 242.05 304.496 242.05H313.761C314.047 242.05 314.322 241.937 314.525 241.735C314.728 241.533 314.842 241.259 314.843 240.973V231.714C314.842 231.428 314.728 231.153 314.525 230.951C314.323 230.748 314.048 230.634 313.761 230.633Z" fill="#E6E6E6"/>
<path d="M313.761 246.411H304.496C304.209 246.411 303.934 246.525 303.731 246.728C303.528 246.931 303.414 247.205 303.414 247.492V256.747C303.414 256.889 303.442 257.029 303.496 257.161C303.55 257.292 303.63 257.411 303.731 257.512C303.831 257.612 303.951 257.692 304.082 257.746C304.213 257.8 304.354 257.828 304.496 257.828H313.761C314.048 257.827 314.323 257.714 314.526 257.511C314.729 257.308 314.843 257.033 314.843 256.747V247.492C314.842 247.206 314.728 246.931 314.525 246.729C314.323 246.526 314.048 246.412 313.761 246.411Z" fill="#E6E6E6"/>
<path d="M314.827 263.078C314.78 262.829 314.649 262.604 314.454 262.442C314.26 262.28 314.015 262.19 313.761 262.189H304.496C304.209 262.189 303.934 262.303 303.731 262.506C303.528 262.708 303.414 262.983 303.414 263.27V272.524C303.414 272.666 303.442 272.807 303.496 272.938C303.55 273.07 303.63 273.189 303.731 273.289C303.831 273.39 303.951 273.469 304.082 273.524C304.213 273.578 304.354 273.606 304.496 273.605H313.761C314.048 273.605 314.323 273.491 314.526 273.289C314.729 273.086 314.843 272.811 314.843 272.524V263.27C314.844 263.206 314.839 263.142 314.827 263.078Z" fill="#E6E6E6"/>
<path d="M314.182 278.05C314.048 277.995 313.906 277.966 313.761 277.966H304.496C304.354 277.966 304.213 277.994 304.082 278.048C303.951 278.102 303.831 278.182 303.731 278.282C303.63 278.383 303.55 278.502 303.496 278.633C303.442 278.765 303.414 278.905 303.414 279.047V288.302C303.414 288.444 303.441 288.585 303.495 288.716C303.55 288.848 303.629 288.967 303.73 289.068C303.831 289.168 303.95 289.248 304.082 289.302C304.213 289.356 304.354 289.384 304.496 289.383H313.761C314.048 289.383 314.323 289.269 314.526 289.066C314.729 288.864 314.843 288.589 314.843 288.302V279.047C314.843 278.835 314.78 278.627 314.662 278.449C314.545 278.272 314.378 278.133 314.182 278.05Z" fill="#E6E6E6"/>
<path d="M333.223 214.856H323.958C323.671 214.856 323.396 214.97 323.193 215.172C322.99 215.375 322.876 215.65 322.876 215.937V225.195C322.876 225.337 322.904 225.477 322.959 225.608C323.013 225.739 323.093 225.858 323.194 225.958C323.294 226.058 323.413 226.137 323.545 226.191C323.676 226.245 323.816 226.273 323.958 226.272H333.223C333.509 226.272 333.784 226.159 333.987 225.957C334.19 225.755 334.304 225.481 334.305 225.195V215.937C334.304 215.65 334.19 215.376 333.987 215.173C333.785 214.971 333.51 214.856 333.223 214.856Z" fill="#E6E6E6"/>
<path d="M333.223 230.633H323.958C323.671 230.633 323.396 230.747 323.193 230.95C322.99 231.153 322.876 231.428 322.876 231.714V240.973C322.876 241.115 322.904 241.255 322.959 241.386C323.013 241.517 323.093 241.636 323.194 241.736C323.294 241.836 323.413 241.915 323.545 241.969C323.676 242.023 323.816 242.05 323.958 242.05H333.223C333.509 242.05 333.784 241.937 333.987 241.735C334.19 241.533 334.304 241.259 334.305 240.973V231.714C334.304 231.428 334.19 231.153 333.987 230.951C333.785 230.748 333.51 230.634 333.223 230.633Z" fill="#A37FFB"/>
<path d="M333.223 246.411H323.958C323.671 246.411 323.396 246.525 323.193 246.728C322.99 246.931 322.876 247.205 322.876 247.492V256.747C322.876 256.889 322.904 257.029 322.958 257.161C323.012 257.292 323.092 257.411 323.193 257.512C323.293 257.612 323.412 257.692 323.544 257.746C323.675 257.8 323.816 257.828 323.958 257.828H333.223C333.51 257.827 333.785 257.714 333.988 257.511C334.191 257.308 334.305 257.033 334.305 256.747V247.492C334.304 247.206 334.19 246.931 333.987 246.729C333.785 246.526 333.51 246.412 333.223 246.411Z" fill="#A37FFB"/>
<path d="M333.223 262.189H323.958C323.731 262.189 323.51 262.26 323.327 262.393C323.143 262.526 323.006 262.714 322.934 262.929C322.896 263.038 322.876 263.154 322.876 263.27V272.524C322.876 272.666 322.904 272.807 322.958 272.938C323.012 273.07 323.092 273.189 323.192 273.289C323.293 273.39 323.412 273.469 323.544 273.524C323.675 273.578 323.816 273.606 323.958 273.605H333.223C333.51 273.605 333.785 273.491 333.988 273.289C334.191 273.086 334.305 272.811 334.305 272.524V263.27C334.304 262.983 334.19 262.709 333.987 262.506C333.785 262.304 333.51 262.19 333.223 262.189Z" fill="#A37FFB"/>
<path d="M333.223 277.966H323.958C323.816 277.966 323.675 277.994 323.544 278.048C323.412 278.102 323.293 278.182 323.193 278.282C323.092 278.383 323.012 278.502 322.958 278.633C322.904 278.765 322.876 278.905 322.876 279.047V288.302C322.876 288.444 322.904 288.585 322.958 288.716C323.012 288.847 323.092 288.967 323.193 289.067C323.293 289.167 323.412 289.247 323.544 289.301C323.675 289.356 323.816 289.383 323.958 289.383H333.223C333.51 289.383 333.785 289.269 333.988 289.066C334.191 288.864 334.305 288.589 334.305 288.302V279.047C334.305 278.761 334.191 278.486 333.988 278.283C333.785 278.081 333.51 277.967 333.223 277.966Z" fill="#E6E6E6"/>
<path d="M352.685 214.856H343.42C343.133 214.856 342.858 214.97 342.655 215.172C342.452 215.375 342.338 215.65 342.338 215.937V225.195C342.338 225.337 342.366 225.477 342.421 225.608C342.475 225.739 342.555 225.858 342.656 225.958C342.756 226.058 342.875 226.137 343.007 226.191C343.138 226.245 343.278 226.273 343.42 226.272H352.685C352.971 226.272 353.246 226.159 353.449 225.957C353.652 225.755 353.766 225.481 353.767 225.195V215.937C353.766 215.65 353.652 215.376 353.449 215.173C353.246 214.971 352.972 214.856 352.685 214.856Z" fill="#A37FFB"/>
<path d="M352.685 230.633H343.42C343.133 230.633 342.858 230.747 342.655 230.95C342.452 231.153 342.338 231.428 342.338 231.714V240.973C342.338 241.115 342.366 241.255 342.421 241.386C342.475 241.517 342.555 241.636 342.656 241.736C342.756 241.836 342.875 241.915 343.007 241.969C343.138 242.023 343.278 242.05 343.42 242.05H352.685C352.971 242.05 353.246 241.937 353.449 241.735C353.652 241.533 353.766 241.259 353.767 240.973V231.714C353.766 231.428 353.652 231.153 353.449 230.951C353.247 230.748 352.972 230.634 352.685 230.633Z" fill="#A37FFB"/>
<path d="M352.685 246.411H343.42C343.133 246.411 342.858 246.525 342.655 246.728C342.452 246.931 342.338 247.205 342.338 247.492V256.747C342.338 256.889 342.366 257.029 342.42 257.161C342.474 257.292 342.554 257.411 342.654 257.512C342.755 257.612 342.874 257.692 343.006 257.746C343.137 257.8 343.278 257.828 343.42 257.828H352.685C352.972 257.827 353.247 257.714 353.45 257.511C353.653 257.308 353.767 257.033 353.767 256.747V247.492C353.766 247.206 353.652 246.931 353.449 246.729C353.247 246.526 352.972 246.412 352.685 246.411Z" fill="#E6E6E6"/>
<path d="M352.685 262.189H343.42C343.133 262.189 342.858 262.303 342.655 262.506C342.452 262.708 342.338 262.983 342.338 263.27V272.524C342.338 272.666 342.366 272.807 342.42 272.938C342.474 273.07 342.554 273.189 342.654 273.289C342.755 273.39 342.874 273.469 343.006 273.524C343.137 273.578 343.278 273.606 343.42 273.605H352.685C352.972 273.605 353.247 273.491 353.45 273.289C353.653 273.086 353.767 272.811 353.767 272.524V263.27C353.766 262.983 353.652 262.709 353.449 262.506C353.247 262.304 352.972 262.19 352.685 262.189Z" fill="#A37FFB"/>
<path d="M352.685 277.966H343.42C343.278 277.966 343.137 277.994 343.006 278.048C342.874 278.102 342.755 278.182 342.654 278.282C342.554 278.383 342.474 278.502 342.42 278.633C342.366 278.765 342.338 278.905 342.338 279.047V288.302C342.338 288.444 342.366 288.585 342.42 288.716C342.474 288.847 342.554 288.967 342.654 289.067C342.755 289.167 342.874 289.247 343.006 289.301C343.137 289.356 343.278 289.383 343.42 289.383H352.685C352.972 289.383 353.247 289.269 353.45 289.066C353.653 288.864 353.767 288.589 353.767 288.302V279.047C353.767 278.761 353.653 278.486 353.45 278.283C353.247 278.081 352.972 277.967 352.685 277.966Z" fill="#A37FFB"/>
<path d="M372.147 214.856H362.882C362.595 214.856 362.32 214.97 362.117 215.172C361.914 215.375 361.8 215.65 361.8 215.937V225.195C361.8 225.337 361.828 225.477 361.883 225.608C361.937 225.739 362.017 225.858 362.117 225.958C362.218 226.058 362.337 226.137 362.468 226.191C362.599 226.245 362.74 226.273 362.882 226.272H372.147C372.433 226.272 372.708 226.159 372.911 225.957C373.113 225.755 373.228 225.481 373.229 225.195V215.937C373.228 215.65 373.114 215.376 372.911 215.173C372.708 214.971 372.433 214.856 372.147 214.856Z" fill="#A37FFB"/>
<path d="M372.147 230.633H362.882C362.595 230.633 362.32 230.747 362.117 230.95C361.914 231.153 361.8 231.428 361.8 231.714V240.973C361.8 241.115 361.828 241.255 361.883 241.386C361.937 241.517 362.017 241.636 362.117 241.736C362.218 241.836 362.337 241.915 362.468 241.969C362.599 242.023 362.74 242.05 362.882 242.05H372.147C372.433 242.05 372.708 241.937 372.911 241.735C373.113 241.533 373.228 241.259 373.229 240.973V231.714C373.228 231.428 373.114 231.153 372.911 230.951C372.708 230.748 372.433 230.634 372.147 230.633Z" fill="white"/>
<path d="M372.147 246.411H362.882C362.595 246.411 362.32 246.525 362.117 246.728C361.914 246.931 361.8 247.205 361.8 247.492V256.747C361.8 256.889 361.827 257.029 361.882 257.161C361.936 257.292 362.016 257.411 362.116 257.512C362.217 257.612 362.336 257.692 362.467 257.746C362.599 257.8 362.74 257.828 362.882 257.828H372.147C372.434 257.827 372.709 257.714 372.912 257.511C373.115 257.308 373.229 257.033 373.229 256.747V247.492C373.228 247.206 373.114 246.931 372.911 246.729C372.708 246.526 372.433 246.412 372.147 246.411Z" fill="white"/>
<path d="M372.147 262.189H362.882C362.595 262.189 362.32 262.303 362.117 262.506C361.914 262.708 361.8 262.983 361.8 263.27V272.524C361.8 272.666 361.827 272.807 361.882 272.938C361.936 273.07 362.016 273.189 362.116 273.289C362.217 273.39 362.336 273.469 362.467 273.524C362.599 273.578 362.74 273.606 362.882 273.605H372.147C372.434 273.605 372.709 273.491 372.912 273.289C373.115 273.086 373.229 272.811 373.229 272.524V263.27C373.228 262.983 373.114 262.709 372.911 262.506C372.708 262.304 372.433 262.19 372.147 262.189Z" fill="#E6E6E6"/>
<path d="M372.147 277.966H362.882C362.74 277.966 362.599 277.994 362.467 278.048C362.336 278.102 362.217 278.182 362.116 278.282C362.016 278.383 361.936 278.502 361.882 278.633C361.827 278.765 361.8 278.905 361.8 279.047V288.302C361.8 288.444 361.827 288.585 361.882 288.716C361.936 288.847 362.016 288.967 362.116 289.067C362.217 289.167 362.336 289.247 362.467 289.301C362.599 289.356 362.74 289.383 362.882 289.383H372.147C372.434 289.383 372.709 289.269 372.912 289.066C373.115 288.864 373.229 288.589 373.229 288.302V279.047C373.229 278.761 373.115 278.486 372.912 278.283C372.709 278.081 372.434 277.967 372.147 277.966Z" fill="#A37FFB"/>
<path d="M391.609 214.856H382.34C382.053 214.857 381.779 214.971 381.577 215.174C381.375 215.376 381.262 215.651 381.262 215.937V225.195C381.262 225.481 381.375 225.755 381.578 225.957C381.78 226.159 382.054 226.272 382.34 226.272H391.609C391.895 226.272 392.17 226.159 392.372 225.957C392.575 225.755 392.69 225.481 392.691 225.195V215.937C392.69 215.65 392.576 215.376 392.373 215.173C392.17 214.971 391.895 214.856 391.609 214.856Z" fill="white"/>
<path d="M391.609 230.633H382.34C382.053 230.634 381.779 230.749 381.577 230.951C381.375 231.154 381.262 231.428 381.262 231.714V240.973C381.262 241.259 381.375 241.532 381.578 241.734C381.78 241.936 382.054 242.05 382.34 242.05H391.609C391.895 242.05 392.17 241.937 392.372 241.735C392.575 241.533 392.69 241.259 392.691 240.973V231.714C392.69 231.428 392.576 231.153 392.373 230.951C392.17 230.748 391.895 230.634 391.609 230.633Z" fill="white"/>
<path d="M391.609 246.411H382.34C382.053 246.412 381.779 246.526 381.577 246.729C381.375 246.932 381.262 247.206 381.262 247.492V256.747C381.261 256.888 381.289 257.029 381.343 257.16C381.397 257.291 381.476 257.41 381.576 257.51C381.676 257.611 381.795 257.69 381.926 257.745C382.057 257.799 382.198 257.827 382.34 257.828H391.609C391.896 257.827 392.171 257.714 392.374 257.511C392.577 257.308 392.691 257.033 392.691 256.747V247.492C392.69 247.206 392.576 246.931 392.373 246.729C392.17 246.526 391.895 246.412 391.609 246.411Z" fill="white"/>
<path d="M391.609 262.189H382.34C382.053 262.19 381.779 262.304 381.577 262.507C381.375 262.709 381.262 262.984 381.262 263.27V272.524C381.261 272.666 381.289 272.806 381.343 272.937C381.397 273.069 381.476 273.188 381.576 273.288C381.676 273.388 381.795 273.468 381.926 273.523C382.057 273.577 382.198 273.605 382.34 273.605H391.609C391.896 273.605 392.171 273.491 392.374 273.289C392.577 273.086 392.691 272.811 392.691 272.524V263.27C392.69 262.983 392.576 262.709 392.373 262.506C392.17 262.304 391.895 262.19 391.609 262.189Z" fill="#A37FFB"/>
<path d="M391.609 277.966H382.34C382.198 277.967 382.057 277.995 381.926 278.049C381.795 278.104 381.676 278.183 381.576 278.284C381.476 278.384 381.397 278.503 381.343 278.634C381.289 278.765 381.261 278.906 381.262 279.047V288.302C381.261 288.444 381.289 288.584 381.343 288.715C381.397 288.846 381.476 288.965 381.576 289.066C381.676 289.166 381.795 289.246 381.926 289.3C382.057 289.355 382.198 289.383 382.34 289.383H391.609C391.896 289.383 392.171 289.269 392.374 289.066C392.577 288.864 392.691 288.589 392.691 288.302V279.047C392.691 278.761 392.577 278.486 392.374 278.283C392.171 278.081 391.896 277.967 391.609 277.966Z" fill="#E6E6E6"/>
<path d="M411.07 214.856H401.801C401.515 214.857 401.241 214.971 401.039 215.174C400.837 215.376 400.723 215.651 400.724 215.937V225.195C400.724 225.481 400.837 225.755 401.039 225.957C401.241 226.159 401.516 226.272 401.801 226.272H411.07C411.357 226.272 411.631 226.159 411.834 225.957C412.037 225.755 412.152 225.481 412.153 225.195V215.937C412.152 215.65 412.037 215.376 411.835 215.173C411.632 214.971 411.357 214.856 411.07 214.856Z" fill="white"/>
<path d="M411.07 230.633H401.801C401.515 230.634 401.241 230.749 401.039 230.951C400.837 231.154 400.723 231.428 400.724 231.714V240.973C400.724 241.259 400.837 241.532 401.039 241.734C401.241 241.936 401.516 242.05 401.801 242.05H411.07C411.357 242.05 411.631 241.937 411.834 241.735C412.037 241.533 412.152 241.259 412.153 240.973V231.714C412.152 231.428 412.037 231.153 411.835 230.951C411.632 230.748 411.357 230.634 411.07 230.633Z" fill="white"/>
<path d="M411.07 246.411H401.802C401.515 246.412 401.241 246.526 401.039 246.729C400.837 246.932 400.723 247.206 400.724 247.492V256.747C400.723 256.888 400.751 257.029 400.805 257.16C400.859 257.291 400.938 257.41 401.038 257.51C401.138 257.611 401.257 257.69 401.388 257.745C401.519 257.799 401.66 257.827 401.802 257.828H411.07C411.357 257.827 411.633 257.714 411.835 257.511C412.038 257.308 412.152 257.033 412.153 256.747V247.492C412.152 247.206 412.037 246.931 411.835 246.729C411.632 246.526 411.357 246.412 411.07 246.411Z" fill="#A37FFB"/>
<path d="M411.07 262.189H401.802C401.515 262.19 401.241 262.304 401.039 262.507C400.837 262.709 400.723 262.984 400.724 263.27V272.524C400.723 272.666 400.751 272.806 400.805 272.937C400.859 273.069 400.938 273.188 401.038 273.288C401.138 273.388 401.257 273.468 401.388 273.523C401.519 273.577 401.66 273.605 401.802 273.605H411.07C411.357 273.605 411.633 273.491 411.835 273.289C412.038 273.086 412.152 272.811 412.153 272.524V263.27C412.152 262.983 412.037 262.709 411.835 262.506C411.632 262.304 411.357 262.19 411.07 262.189Z" fill="#E6E6E6"/>
<path d="M411.07 277.966H401.802C401.66 277.967 401.519 277.995 401.388 278.049C401.257 278.104 401.138 278.183 401.038 278.284C400.938 278.384 400.859 278.503 400.805 278.634C400.751 278.765 400.723 278.906 400.724 279.047V288.302C400.723 288.444 400.751 288.584 400.805 288.715C400.859 288.846 400.938 288.965 401.038 289.066C401.138 289.166 401.257 289.246 401.388 289.3C401.519 289.355 401.66 289.383 401.802 289.383H411.07C411.357 289.383 411.633 289.269 411.835 289.066C412.038 288.864 412.152 288.589 412.153 288.302V279.047C412.152 278.761 412.038 278.486 411.835 278.283C411.633 278.081 411.357 277.967 411.07 277.966Z" fill="white"/>
<path d="M430.532 214.856H421.263C420.977 214.857 420.703 214.971 420.501 215.174C420.299 215.376 420.185 215.651 420.185 215.937V225.195C420.185 225.481 420.299 225.755 420.501 225.957C420.703 226.159 420.978 226.272 421.263 226.272H430.532C430.819 226.272 431.093 226.159 431.296 225.957C431.499 225.755 431.613 225.481 431.615 225.195V215.937C431.614 215.65 431.499 215.376 431.297 215.173C431.094 214.971 430.819 214.856 430.532 214.856Z" fill="#A37FFB"/>
<path d="M430.532 230.633H421.263C420.977 230.634 420.703 230.749 420.501 230.951C420.299 231.154 420.185 231.428 420.185 231.714V240.973C420.185 241.259 420.299 241.532 420.501 241.734C420.703 241.936 420.978 242.05 421.263 242.05H430.532C430.819 242.05 431.093 241.937 431.296 241.735C431.499 241.533 431.613 241.259 431.615 240.973V231.714C431.614 231.428 431.499 231.153 431.297 230.951C431.094 230.748 430.819 230.634 430.532 230.633Z" fill="#A37FFB"/>
<path d="M430.532 246.411H421.263C420.977 246.412 420.703 246.526 420.501 246.729C420.299 246.932 420.185 247.206 420.185 247.492V256.747C420.185 256.888 420.213 257.029 420.267 257.16C420.321 257.291 420.4 257.41 420.5 257.51C420.6 257.611 420.719 257.69 420.85 257.745C420.981 257.799 421.122 257.827 421.263 257.828H430.532C430.819 257.827 431.094 257.714 431.297 257.511C431.5 257.308 431.614 257.033 431.615 256.747V247.492C431.614 247.206 431.499 246.931 431.297 246.729C431.094 246.526 430.819 246.412 430.532 246.411Z" fill="#E6E6E6"/>
<path d="M430.532 262.189H421.263C420.977 262.19 420.703 262.304 420.501 262.507C420.299 262.709 420.185 262.984 420.185 263.27V272.524C420.185 272.666 420.213 272.806 420.267 272.937C420.321 273.069 420.4 273.188 420.5 273.288C420.6 273.388 420.719 273.468 420.85 273.523C420.981 273.577 421.122 273.605 421.263 273.605H430.532C430.819 273.605 431.094 273.491 431.297 273.289C431.5 273.086 431.614 272.811 431.615 272.524V263.27C431.614 262.983 431.499 262.709 431.297 262.506C431.094 262.304 430.819 262.19 430.532 262.189Z" fill="white"/>
<path d="M430.532 277.966H421.263C421.122 277.967 420.981 277.995 420.85 278.049C420.719 278.104 420.6 278.183 420.5 278.284C420.4 278.384 420.321 278.503 420.267 278.634C420.213 278.765 420.185 278.906 420.185 279.047V288.302C420.185 288.444 420.213 288.584 420.267 288.715C420.321 288.846 420.4 288.965 420.5 289.066C420.6 289.166 420.719 289.246 420.85 289.3C420.981 289.355 421.122 289.383 421.263 289.383H430.532C430.819 289.383 431.094 289.269 431.297 289.066C431.5 288.864 431.614 288.589 431.615 288.302V279.047C431.614 278.761 431.5 278.486 431.297 278.283C431.094 278.081 430.819 277.967 430.532 277.966Z" fill="#A37FFB"/>
<path d="M449.994 214.856H440.725C440.439 214.857 440.165 214.971 439.963 215.174C439.761 215.376 439.647 215.651 439.647 215.937V225.195C439.647 225.481 439.761 225.755 439.963 225.957C440.165 226.159 440.439 226.272 440.725 226.272H449.994C450.28 226.272 450.555 226.159 450.758 225.957C450.961 225.755 451.075 225.481 451.076 225.195V215.937C451.075 215.65 450.961 215.376 450.758 215.173C450.556 214.971 450.281 214.856 449.994 214.856Z" fill="#A37FFB"/>
<path d="M449.994 230.633H440.725C440.439 230.634 440.165 230.749 439.963 230.951C439.761 231.154 439.647 231.428 439.647 231.714V240.973C439.647 241.259 439.761 241.532 439.963 241.734C440.165 241.936 440.439 242.05 440.725 242.05H449.994C450.28 242.05 450.555 241.937 450.758 241.735C450.961 241.533 451.075 241.259 451.076 240.973V231.714C451.075 231.428 450.961 231.153 450.758 230.951C450.556 230.748 450.281 230.634 449.994 230.633Z" fill="#A37FFB"/>
<path d="M449.994 246.411H440.725C440.439 246.412 440.165 246.526 439.963 246.729C439.761 246.932 439.647 247.206 439.647 247.492V256.747C439.647 256.888 439.674 257.029 439.728 257.16C439.782 257.291 439.862 257.41 439.962 257.51C440.062 257.611 440.181 257.69 440.312 257.745C440.443 257.799 440.583 257.827 440.725 257.828H449.994C450.281 257.827 450.556 257.714 450.759 257.511C450.962 257.308 451.076 257.033 451.076 256.747V247.492C451.075 247.206 450.961 246.931 450.758 246.729C450.556 246.526 450.281 246.412 449.994 246.411Z" fill="#E6E6E6"/>
<path d="M449.994 262.189H440.725C440.439 262.19 440.165 262.304 439.963 262.507C439.761 262.709 439.647 262.984 439.647 263.27V272.524C439.647 272.666 439.674 272.806 439.728 272.937C439.782 273.069 439.862 273.188 439.962 273.288C440.062 273.388 440.181 273.468 440.312 273.523C440.443 273.577 440.583 273.605 440.725 273.605H449.994C450.281 273.605 450.556 273.491 450.759 273.289C450.962 273.086 451.076 272.811 451.076 272.524V263.27C451.075 262.983 450.961 262.709 450.758 262.506C450.556 262.304 450.281 262.19 449.994 262.189Z" fill="#A37FFB"/>
<path d="M449.994 277.966H440.725C440.583 277.967 440.443 277.995 440.312 278.049C440.181 278.104 440.062 278.183 439.962 278.284C439.862 278.384 439.782 278.503 439.728 278.634C439.674 278.765 439.647 278.906 439.647 279.047V288.302C439.647 288.444 439.674 288.584 439.728 288.715C439.782 288.846 439.862 288.965 439.962 289.066C440.062 289.166 440.181 289.246 440.312 289.3C440.443 289.355 440.583 289.383 440.725 289.383H449.994C450.281 289.383 450.556 289.269 450.759 289.066C450.962 288.864 451.076 288.589 451.076 288.302V279.047C451.076 278.761 450.962 278.486 450.759 278.283C450.556 278.081 450.281 277.967 449.994 277.966Z" fill="#A37FFB"/>
<path d="M469.456 214.856H460.187C459.901 214.857 459.627 214.971 459.425 215.174C459.222 215.376 459.109 215.651 459.109 215.937V225.195C459.109 225.481 459.223 225.755 459.425 225.957C459.627 226.159 459.901 226.272 460.187 226.272H469.456C469.742 226.272 470.017 226.159 470.22 225.957C470.423 225.755 470.537 225.481 470.538 225.195V215.937C470.537 215.65 470.423 215.376 470.22 215.173C470.018 214.971 469.743 214.856 469.456 214.856Z" fill="#E6E6E6"/>
<path d="M469.456 230.633H460.187C459.901 230.634 459.627 230.749 459.424 230.951C459.222 231.154 459.109 231.428 459.109 231.714V240.973C459.109 241.259 459.223 241.532 459.425 241.734C459.627 241.936 459.901 242.05 460.187 242.05H469.456C469.742 242.05 470.017 241.937 470.22 241.735C470.423 241.533 470.537 241.259 470.538 240.973V231.714C470.537 231.428 470.423 231.153 470.22 230.951C470.018 230.748 469.743 230.634 469.456 230.633Z" fill="#A37FFB"/>
<path d="M469.456 246.411H460.187C459.901 246.412 459.627 246.526 459.424 246.729C459.222 246.932 459.109 247.206 459.109 247.492V256.747C459.109 256.888 459.136 257.029 459.19 257.16C459.244 257.291 459.324 257.41 459.424 257.51C459.524 257.611 459.643 257.69 459.774 257.745C459.905 257.799 460.045 257.827 460.187 257.828H469.456C469.743 257.827 470.018 257.714 470.221 257.511C470.424 257.308 470.538 257.033 470.538 256.747V247.492C470.537 247.206 470.423 246.931 470.22 246.729C470.018 246.526 469.743 246.412 469.456 246.411Z" fill="#A37FFB"/>
<path d="M469.456 262.189H460.187C459.901 262.19 459.627 262.304 459.424 262.507C459.222 262.709 459.109 262.984 459.109 263.27V272.524C459.109 272.666 459.136 272.806 459.19 272.937C459.244 273.069 459.324 273.188 459.424 273.288C459.524 273.388 459.643 273.468 459.774 273.523C459.905 273.577 460.045 273.605 460.187 273.605H469.456C469.743 273.605 470.018 273.491 470.221 273.289C470.424 273.086 470.538 272.811 470.538 272.524V263.27C470.537 262.983 470.423 262.709 470.22 262.506C470.018 262.304 469.743 262.19 469.456 262.189Z" fill="#A37FFB"/>
<path d="M469.456 277.966H460.187C460.045 277.967 459.905 277.995 459.774 278.049C459.643 278.104 459.524 278.183 459.424 278.284C459.324 278.384 459.244 278.503 459.19 278.634C459.136 278.765 459.109 278.906 459.109 279.047V288.302C459.109 288.444 459.136 288.584 459.19 288.715C459.244 288.846 459.324 288.965 459.424 289.066C459.524 289.166 459.643 289.246 459.774 289.3C459.905 289.355 460.045 289.383 460.187 289.383H469.456C469.743 289.383 470.018 289.269 470.221 289.066C470.424 288.864 470.538 288.589 470.538 288.302V279.047C470.538 278.761 470.424 278.486 470.221 278.283C470.018 278.081 469.743 277.967 469.456 277.966Z" fill="#E6E6E6"/>
<path d="M488.918 214.856H479.649C479.363 214.857 479.088 214.971 478.886 215.174C478.684 215.376 478.571 215.651 478.571 215.937V225.195C478.571 225.481 478.685 225.755 478.887 225.957C479.089 226.159 479.363 226.272 479.649 226.272H488.918C489.204 226.272 489.479 226.159 489.682 225.957C489.885 225.755 489.999 225.481 490 225.195V215.937C489.999 215.65 489.885 215.376 489.682 215.173C489.479 214.971 489.205 214.856 488.918 214.856Z" fill="#E6E6E6"/>
<path d="M488.918 230.633H479.649C479.363 230.634 479.088 230.749 478.886 230.951C478.684 231.154 478.571 231.428 478.571 231.714V240.973C478.571 241.259 478.685 241.532 478.887 241.734C479.089 241.936 479.363 242.05 479.649 242.05H488.918C489.204 242.05 489.479 241.937 489.682 241.735C489.885 241.533 489.999 241.259 490 240.973V231.714C489.999 231.428 489.885 231.153 489.682 230.951C489.479 230.748 489.205 230.634 488.918 230.633Z" fill="#E6E6E6"/>
<path d="M488.918 246.411H479.649C479.363 246.412 479.088 246.526 478.886 246.729C478.684 246.932 478.571 247.206 478.571 247.492V256.747C478.571 256.888 478.598 257.029 478.652 257.16C478.706 257.291 478.785 257.41 478.886 257.51C478.986 257.611 479.105 257.69 479.236 257.745C479.367 257.799 479.507 257.827 479.649 257.828H488.918C489.205 257.827 489.48 257.714 489.683 257.511C489.886 257.308 490 257.033 490 256.747V247.492C489.999 247.206 489.885 246.931 489.682 246.729C489.479 246.526 489.205 246.412 488.918 246.411Z" fill="#A37FFB"/>
<path d="M488.918 262.189H479.649C479.363 262.19 479.088 262.304 478.886 262.507C478.684 262.709 478.571 262.984 478.571 263.27V272.524C478.571 272.666 478.598 272.806 478.652 272.937C478.706 273.069 478.785 273.188 478.886 273.288C478.986 273.388 479.105 273.468 479.236 273.523C479.367 273.577 479.507 273.605 479.649 273.605H488.918C489.205 273.605 489.48 273.491 489.683 273.289C489.886 273.086 490 272.811 490 272.524V263.27C489.999 262.983 489.885 262.709 489.682 262.506C489.479 262.304 489.205 262.19 488.918 262.189Z" fill="#E6E6E6"/>
<path d="M488.918 277.966H479.649C479.507 277.967 479.367 277.995 479.236 278.049C479.105 278.104 478.986 278.183 478.886 278.284C478.785 278.384 478.706 278.503 478.652 278.634C478.598 278.765 478.571 278.906 478.571 279.047V288.302C478.571 288.444 478.598 288.584 478.652 288.715C478.706 288.846 478.785 288.965 478.886 289.066C478.986 289.166 479.105 289.246 479.236 289.3C479.367 289.355 479.507 289.383 479.649 289.383H488.918C489.205 289.383 489.48 289.269 489.683 289.066C489.886 288.864 490 288.589 490 288.302V279.047C490 278.761 489.886 278.486 489.683 278.283C489.48 278.081 489.205 277.967 488.918 277.966Z" fill="#E6E6E6"/>
<path d="M275.885 414.416H275.627L275.848 414.387L275.885 414.416Z" fill="#2F2E41"/>
<path d="M253.709 241.881C269.414 241.881 282.145 229.164 282.145 213.477C282.145 197.789 269.414 185.072 253.709 185.072C238.005 185.072 225.273 197.789 225.273 213.477C225.273 229.164 238.005 241.881 253.709 241.881Z" fill="#EBB181"/>
<path d="M278.612 192.651C278.612 192.651 286.049 178.448 269.687 177.157C269.687 177.157 255.737 164.517 241.519 174.846C241.519 174.846 233.764 174.846 229.523 183.613C229.523 183.613 223.424 181.302 222.083 187.486C222.083 187.486 217.62 200.398 222.083 212.018C226.547 223.638 228.029 224.929 228.029 224.929C228.029 224.929 220.695 200.567 238.547 199.276C256.398 197.984 276.374 186.841 277.862 201.043C279.35 215.245 281.588 218.745 281.588 218.745C281.588 218.745 295.718 198.461 278.612 192.651Z" fill="#2F2E41"/>
<path d="M327.267 283.479L327.176 283.962L326.148 289.383L319.043 326.884L318.623 329.091L317.74 333.76L316.533 340.129L313.857 354.244L313.091 358.289L312.804 359.807L312.704 360.339L311.909 364.526L311.668 365.79L309.728 380.145L308.034 392.655L313.703 398.318L310.323 401.694L308.105 414.387L308.109 414.416H217.572C213.909 412.046 210.299 409.603 206.742 407.086L207.487 401.515C207.487 401.515 210.051 391.566 208.973 390.377C207.899 389.188 205.543 387.064 205.543 387.064L208.511 380.145L208.923 379.185L208.232 364.871L208.215 364.526L207.986 359.807L207.957 359.2L207.911 358.289L207.033 340.129L207.017 339.83L206.75 334.326L206.5 329.091L206.392 326.884L205.323 304.795L204.598 289.795L203.966 276.736L206.509 275.875L233.708 266.641L244.975 252.011L268.424 252.186L279.903 252.273L299.057 270.017L303.414 272.096L303.448 272.113L306.573 273.605L314.498 277.384L322.876 281.384L327.176 283.434L327.267 283.479Z" fill="#CACACA"/>
<path d="M248.005 371.802C246.287 372.467 244.443 372.747 242.605 372.624C240.766 372.5 238.977 371.975 237.363 371.086C235.75 370.197 234.351 368.965 233.265 367.478C232.18 365.99 231.434 364.283 231.08 362.477L186.73 356.191L202.147 338.771L241.9 347.41C244.977 347.018 248.092 347.767 250.654 349.515C253.215 351.264 255.046 353.89 255.798 356.897C256.551 359.904 256.173 363.082 254.737 365.829C253.301 368.576 250.905 370.701 248.005 371.802Z" fill="#EBB181"/>
<path d="M228.231 340.129C227.409 339.089 226.246 338.372 224.947 338.105L206.75 334.326L204.881 333.939C203.795 333.713 202.77 333.26 201.871 332.61C200.972 331.96 200.221 331.128 199.666 330.168C199.091 329.16 198.743 328.04 198.647 326.884C198.56 325.833 198.686 324.775 199.017 323.774L205.323 304.795L209.414 292.48C209.91 290.995 210.202 289.45 210.284 287.886C210.512 283.56 209.172 279.296 206.509 275.875C204.168 272.869 200.921 270.695 197.248 269.674C193.574 268.652 189.67 268.839 186.11 270.204C186.006 270.242 185.898 270.283 185.794 270.325C183.242 271.343 180.961 272.94 179.133 274.99C177.305 277.04 175.979 279.487 175.26 282.136L170.815 298.288L161.646 331.586C160.728 334.922 160.543 338.417 161.102 341.831C161.662 345.245 162.954 348.499 164.889 351.368C166.824 354.238 169.357 356.656 172.314 358.456C175.271 360.257 178.583 361.399 182.023 361.803L208.232 364.871L220.36 366.293C221.763 366.461 223.177 366.095 224.322 365.269C225.466 364.442 226.257 363.215 226.537 361.832C226.556 361.756 226.572 361.68 226.582 361.603L226.874 359.807L229.342 344.682L229.367 344.528C229.495 343.756 229.461 342.966 229.265 342.209C229.069 341.451 228.717 340.743 228.231 340.129Z" fill="#CACACA"/>
<path d="M276.255 372.287C278.05 372.703 279.914 372.721 281.717 372.34C283.52 371.958 285.217 371.187 286.689 370.079C288.161 368.972 289.372 367.555 290.237 365.93C291.101 364.304 291.599 362.509 291.694 360.671L334.714 348.201L316.991 333.126L278.855 347.279C275.753 347.324 272.775 348.504 270.486 350.596C268.197 352.688 266.755 355.546 266.435 358.629C266.114 361.711 266.937 364.804 268.747 367.322C270.556 369.839 273.228 371.605 276.255 372.287Z" fill="#EBB181"/>
<path d="M356.073 320.306L335.612 273.269C333.939 269.407 330.95 266.262 327.176 264.392C326.009 263.819 324.784 263.373 323.521 263.062C323.326 263.012 323.13 262.966 322.934 262.929C320.257 262.345 317.48 262.396 314.827 263.078C312.401 263.701 310.134 264.827 308.173 266.384C306.212 267.941 304.602 269.893 303.448 272.113C303.435 272.131 303.424 272.151 303.414 272.171C302.125 274.663 301.439 277.423 301.412 280.229C301.385 283.034 302.018 285.806 303.26 288.323L303.514 288.83L317.973 317.837C318.467 318.829 318.745 319.914 318.79 321.021C318.834 322.128 318.644 323.231 318.231 324.259C317.818 325.288 317.193 326.217 316.395 326.987C315.597 327.756 314.646 328.349 313.603 328.725L312.587 329.091L294.324 335.681C292.954 336.169 291.827 337.17 291.18 338.472C290.533 339.774 290.418 341.276 290.857 342.661L290.903 342.807L296.022 359.171C296.047 359.246 296.072 359.32 296.101 359.395C296.147 359.536 296.202 359.674 296.268 359.807C296.812 361.026 297.774 362.011 298.98 362.585C300.186 363.159 301.558 363.284 302.848 362.937L312.704 360.339L314.714 359.807L340.165 353.093C343.514 352.209 346.632 350.612 349.306 348.413C351.98 346.213 354.146 343.462 355.657 340.349C357.168 337.235 357.987 333.832 358.059 330.373C358.131 326.914 357.453 323.48 356.073 320.306Z" fill="#CACACA"/>
<path d="M154.687 359.807C160.585 366.993 166.945 373.787 173.728 380.145H361.842C363.654 380.148 365.391 380.869 366.672 382.149C367.953 383.43 368.674 385.166 368.676 386.976L368.946 434.592C380.519 429.281 391.356 422.499 401.19 414.416C403.92 412.175 406.566 409.837 409.127 407.402C410.804 405.814 412.441 404.187 414.038 402.521C426.01 390.063 435.704 375.607 442.681 359.807H154.687Z" fill="#3F3D56"/>
<path d="M414.038 402.521C412.444 404.188 410.807 405.815 409.127 407.402H369.083V402.521H414.038Z" fill="white"/>
<path d="M326.893 246.411C326.695 246.046 326.402 245.742 326.045 245.53C325.688 245.317 325.281 245.205 324.866 245.205H188.416C187.805 245.207 187.218 245.451 186.786 245.883C186.354 246.316 186.111 246.902 186.11 247.513V329.091H327.176V247.513C327.178 247.127 327.08 246.748 326.893 246.411Z" fill="#3F3D56"/>
<path d="M185.987 326.883V336.95C185.987 337.367 186.069 337.78 186.229 338.166C186.389 338.551 186.623 338.902 186.919 339.197C187.214 339.492 187.565 339.726 187.951 339.886C188.337 340.045 188.751 340.128 189.168 340.128H241.234V359.995H240.543C240.489 359.995 240.435 360.005 240.385 360.026C240.335 360.047 240.289 360.077 240.251 360.116C240.212 360.154 240.182 360.2 240.161 360.25C240.14 360.3 240.13 360.353 240.13 360.408V361.789C240.13 361.844 240.14 361.897 240.161 361.947C240.182 361.998 240.212 362.043 240.251 362.081C240.289 362.12 240.335 362.15 240.385 362.171C240.435 362.192 240.489 362.202 240.543 362.202H272.865C272.919 362.202 272.973 362.192 273.023 362.171C273.073 362.15 273.119 362.12 273.157 362.081C273.195 362.043 273.226 361.998 273.247 361.947C273.267 361.897 273.278 361.844 273.278 361.789V360.408C273.278 360.353 273.267 360.3 273.247 360.25C273.226 360.2 273.195 360.154 273.157 360.116C273.119 360.077 273.073 360.047 273.023 360.026C272.973 360.005 272.919 359.995 272.865 359.995H272.173V340.128H324.239C324.657 340.128 325.071 340.045 325.457 339.886C325.843 339.726 326.193 339.492 326.489 339.197C326.784 338.902 327.019 338.551 327.179 338.166C327.338 337.78 327.421 337.367 327.421 336.95V326.883H185.987Z" fill="#3F3D56"/>
<path d="M254.995 297.989C262.191 297.989 268.025 292.162 268.025 284.974C268.025 277.785 262.191 271.958 254.995 271.958C247.799 271.958 241.965 277.785 241.965 284.974C241.965 292.162 247.799 297.989 254.995 297.989Z" fill="#A37FFB"/>
<path d="M288.194 211.925H286.113C286.113 196.209 270.542 185.911 254.835 185.903C252.55 185.896 250.27 186.118 248.03 186.564C245.507 187.067 242.889 187.67 240.317 188.456C230.174 191.561 220.768 197.565 220.768 211.925C220.766 214.713 221.121 217.491 221.825 220.19L219.811 220.714C219.064 217.844 218.686 214.89 218.687 211.925C218.687 199.377 223.844 190.759 232.751 185.62C237.433 182.918 243.148 181.176 249.694 180.328C252.419 179.966 255.173 179.882 257.915 180.078C275.978 181.375 288.194 195.211 288.194 211.925Z" fill="#A37FFB"/>
<path d="M291.661 213.076L290.841 207.023C290.638 205.494 289.901 204.086 288.76 203.048C288.027 202.372 287.15 201.87 286.194 201.582C285.239 201.294 284.23 201.227 283.245 201.385L281.942 201.564C281.586 201.611 281.242 201.728 280.931 201.909C280.621 202.089 280.349 202.33 280.132 202.616C279.913 202.901 279.753 203.227 279.661 203.575C279.568 203.922 279.546 204.284 279.595 204.641L281.489 218.585C281.567 219.153 281.822 219.683 282.218 220.098C282.613 220.514 283.13 220.795 283.694 220.901C283.862 220.934 284.032 220.951 284.202 220.951C284.325 220.95 284.447 220.942 284.569 220.926L286.025 220.73C286.913 220.612 287.768 220.315 288.537 219.855C289.305 219.395 289.972 218.783 290.495 218.057C290.608 217.899 290.716 217.737 290.816 217.57C291.596 216.21 291.894 214.627 291.661 213.076Z" fill="#A37FFB"/>
<path d="M281.102 201.818C280.719 202.003 280.387 202.277 280.132 202.616C279.913 202.901 279.753 203.227 279.661 203.575C279.568 203.922 279.546 204.284 279.595 204.641L281.489 218.585C281.567 219.153 281.822 219.683 282.218 220.098C282.613 220.514 283.13 220.795 283.694 220.901L281.102 201.818Z" fill="white"/>
<path d="M291.661 213.076L290.841 207.023C290.638 205.494 289.901 204.086 288.76 203.048L290.645 216.922C290.673 217.145 290.731 217.363 290.816 217.57C291.596 216.21 291.894 214.627 291.661 213.076Z" fill="#3F3D56"/>
<path d="M285.18 217.438C285.75 217.361 286.036 216.007 285.82 214.414C285.604 212.821 284.967 211.593 284.397 211.67C283.828 211.747 283.541 213.101 283.758 214.694C283.974 216.286 284.611 217.515 285.18 217.438Z" fill="#3F3D56"/>
<path d="M283.932 209.954C284.501 209.877 284.788 208.523 284.571 206.931C284.355 205.338 283.718 204.109 283.149 204.187C282.579 204.264 282.293 205.617 282.509 207.21C282.725 208.803 283.362 210.031 283.932 209.954Z" fill="#3F3D56"/>
<path d="M291.84 212.864C292.409 212.787 292.695 211.434 292.479 209.841C292.263 208.248 291.626 207.02 291.056 207.097C290.487 207.174 290.201 208.528 290.417 210.12C290.633 211.713 291.27 212.942 291.84 212.864Z" fill="#3F3D56"/>
<path d="M254.835 185.903C252.55 185.896 250.27 186.118 248.03 186.564C245.507 187.067 242.89 187.67 240.317 188.456C236.301 188.26 233.346 187.221 232.751 185.62C237.433 182.918 243.148 181.176 249.695 180.328C252.419 179.966 255.173 179.882 257.915 180.078C258.205 180.248 258.456 180.477 258.651 180.751C258.846 181.025 258.981 181.337 259.047 181.666C259.242 183.113 257.59 184.651 254.835 185.903Z" fill="#3F3D56"/>
<path d="M228.264 226.351L225.059 213.043C224.945 212.563 224.691 212.127 224.33 211.791C223.968 211.454 223.516 211.232 223.028 211.151C222.89 211.13 222.751 211.119 222.612 211.118C222.416 211.119 222.22 211.142 222.029 211.189L220.789 211.488C219.192 211.874 217.814 212.877 216.956 214.277C216.098 215.676 215.832 217.359 216.215 218.955L217.651 224.925C217.979 226.331 218.759 227.59 219.873 228.509C220.054 228.654 220.243 228.789 220.439 228.912C221.137 229.349 221.915 229.642 222.728 229.773C223.541 229.904 224.372 229.872 225.172 229.677L226.408 229.378C226.735 229.302 227.042 229.159 227.311 228.958C227.711 228.667 228.015 228.263 228.184 227.799C228.354 227.335 228.382 226.831 228.264 226.351Z" fill="#A37FFB"/>
<path d="M221.545 223.875C222.104 223.741 222.252 222.365 221.875 220.802C221.499 219.24 220.741 218.082 220.182 218.216C219.623 218.35 219.476 219.726 219.852 221.289C220.229 222.851 220.987 224.009 221.545 223.875Z" fill="#3F3D56"/>
<path d="M217.383 225.122C217.942 224.988 218.09 223.612 217.713 222.05C217.337 220.487 216.579 219.329 216.02 219.463C215.461 219.598 215.314 220.973 215.69 222.536C216.067 224.099 216.825 225.257 217.383 225.122Z" fill="#3F3D56"/>
<path d="M228.468 226.301L225.263 212.993C225.138 212.474 224.863 212.002 224.471 211.639C224.08 211.275 223.589 211.034 223.061 210.948L227.436 229.124C227.868 228.808 228.196 228.371 228.38 227.869C228.564 227.367 228.594 226.821 228.468 226.301Z" fill="white"/>
<path d="M216.939 216.319C216.85 215.949 216.684 215.602 216.452 215.3C216.001 216.466 215.919 217.741 216.215 218.955L217.651 224.925C217.978 226.331 218.759 227.59 219.873 228.509L216.939 216.319Z" fill="#3F3D56"/>
</g>
</g>
<defs>
<clipPath id="clip0_206_53">
<rect x="145" y="48" width="336" height="400" rx="16" fill="white"/>
</clipPath>
<clipPath id="clip1_206_53">
<rect width="354" height="308" fill="white" transform="translate(136 140)"/>
</clipPath>
</defs>
</svg>
